<svg width="34" height="26" viewBox="0 0 34 26" fill="none" xmlns="http://www.w3.org/2000/svg">
<path fill-rule="evenodd" clip-rule="evenodd" d="M18.6786 0.121082C27.0591 -0.777848 33.3952 3.41716 33.3952 9.75964C33.3952 16.5765 27.5639 23.0438 16.7094 25.0914L20.3699 6.63832L24.2571 7.31255L21.8338 19.6229C25.8982 17.9998 29.0027 14.479 29.0534 10.3839C29.1292 5.36483 23.9796 3.39219 17.8709 4.21621L18.6786 0.121082ZM6.46102 20.8964L7.76103 14.3042H11.826L9.91929 23.9178L13.8321 24.592L17.4921 6.13895L13.5793 5.46471L12.5392 10.7085H8.47013L9.86862 3.61693L6.00648 2.89279L4.45586 10.7085H0.579498V14.3042H3.74246L2.5733 20.1972L6.46102 20.8964ZM3.74246 14.3042L4.45586 10.7085H8.47013L7.76103 14.3042H3.74246ZM12.5392 10.7085H13.655V14.3042H11.826L12.5392 10.7085Z" fill="#1D1F20"/>
</svg>
